<?xml version="1.0" standalone="no"?>
<!DOCTYPE svg PUBLIC "-//W3C//DTD SVG 20010904//EN"
 "http://www.w3.org/TR/2001/REC-SVG-20010904/DTD/svg10.dtd">
<svg version="1.0" xmlns="http://www.w3.org/2000/svg"
 width="512.000000pt" height="512.000000pt" viewBox="0 0 512.000000 512.000000"
 preserveAspectRatio="xMidYMid meet">
<metadata>
Created by potrace 1.14, written by Peter Selinger 2001-2017
</metadata>
<g transform="translate(0.000000,512.000000) scale(0.100000,-0.100000)"
fill="#000000" stroke="none">
<path d="M415 5110 c-197 -41 -349 -188 -400 -385 -13 -52 -15 -307 -15 -2165
0 -2303 -4 -2154 57 -2280 38 -78 151 -189 233 -228 36 -16 92 -35 124 -41 84
-15 4208 -15 4292 0 97 18 180 64 260 143 76 76 114 142 139 242 14 54 15 300
13 2190 l-3 2129 -23 59 c-30 81 -73 144 -135 203 -63 59 -106 86 -183 116
l-59 22 -2130 1 c-1172 1 -2148 -2 -2170 -6z m3775 -202 c74 -38 110 -117 95
-206 -9 -57 -39 -98 -87 -124 -41 -22 -54 -23 -326 -26 l-283 -4 2 -2106 c2
-2300 6 -2137 -55 -2209 -34 -40 -84 -57 -149 -50 -67 8 -116 43 -152 108
l-30 54 -7 1005 c-3 553 -11 1192 -18 1420 -6 251 -8 593 -4 865 4 248 3 552
-1 678 l-7 227 -327 0 c-296 0 -330 2 -366 19 -97 45 -134 130 -103 233 22 73
92 109 248 127 41 5 401 9 800 10 l726 1 44 -22z m-2900 -22 c177 -32 321
-106 441 -225 131 -132 216 -295 260 -502 32 -148 33 -419 1 -562 -52 -237
-132 -414 -315 -698 -8 -13 6 -35 75 -115 264 -308 379 -538 435 -869 23 -138
26 -646 5 -785 -30 -198 -96 -379 -179 -491 -148 -200 -487 -394 -790 -451
-48 -9 -85 -9 -153 -1 -104 14 -162 41 -198 93 l-24 35 6 305 c3 168 11 523
16 790 12 518 9 908 -16 1895 -19 762 -15 1282 10 1369 33 114 86 191 146 215
36 14 193 12 280 -3z"/>
<path d="M1234 4485 c-13 -21 -19 -54 -23 -124 -5 -129 20 -1351 29 -1351 4 0
32 18 63 40 190 137 366 588 369 949 1 89 -3 117 -24 177 -31 88 -82 166 -151
231 -67 63 -124 93 -192 100 -49 5 -54 4 -71 -22z"/>
<path d="M1311 2568 l-74 -21 7 -241 c3 -133 9 -568 13 -968 l6 -728 22 0 c37
0 128 31 182 62 132 74 226 179 299 334 72 149 88 236 86 454 -4 570 -139 959
-384 1103 -55 32 -60 32 -157 5z"/>
</g>
</svg>
